<svg xmlns="http://www.w3.org/2000/svg" xmlns:xlink="http://www.w3.org/1999/xlink" viewBox="0 0 222.6 224.53"><defs><style>.cls-1,.cls-8{fill:none;}.cls-2{fill:#fcca39;}.cls-3{fill:#1d1e1c;}.cls-4{fill:url(#New_Pattern_Swatch_2);}.cls-5{fill:url(#New_Pattern_Swatch_2-3);}.cls-6{fill:#e44a34;}.cls-7{fill:url(#Unnamed_Pattern);}.cls-8{stroke:#fff;stroke-miterlimit:10;stroke-width:0.75px;}</style><pattern id="New_Pattern_Swatch_2" data-name="New Pattern Swatch 2" width="10" height="8" patternTransform="translate(7 -3)" patternUnits="userSpaceOnUse" viewBox="0 0 10 8"><rect class="cls-1" width="10" height="8"/><path class="cls-2" d="M20.29,5.76a1,1,0,0,0-1.37-.36,60.77,60.77,0,0,1-8.64,3.35,1,1,0,0,0,.53,1.92,63,63,0,0,0,9.12-3.54A1,1,0,0,0,20.29,5.76Z"/><path class="cls-2" d="M10.29,5.76A1,1,0,0,0,8.92,5.4,60.77,60.77,0,0,1,.28,8.75a1,1,0,0,0,.53,1.92A63,63,0,0,0,9.93,7.13,1,1,0,0,0,10.29,5.76Z"/><path class="cls-2" d="M.29,5.76A1,1,0,0,0-1.08,5.4,60.77,60.77,0,0,1-9.72,8.75a1,1,0,0,0,.53,1.92A63,63,0,0,0-.07,7.13,1,1,0,0,0,.29,5.76Z"/><path class="cls-2" d="M20.29,1.76a1,1,0,0,0-1.37-.36,60.77,60.77,0,0,1-8.64,3.35,1,1,0,0,0,.53,1.92,63,63,0,0,0,9.12-3.54A1,1,0,0,0,20.29,1.76Z"/><path class="cls-2" d="M10.29,1.76A1,1,0,0,0,8.92,1.4,60.77,60.77,0,0,1,.28,4.75,1,1,0,0,0,.81,6.67,63,63,0,0,0,9.93,3.13,1,1,0,0,0,10.29,1.76Z"/><path class="cls-2" d="M.29,1.76A1,1,0,0,0-1.08,1.4,60.77,60.77,0,0,1-9.72,4.75a1,1,0,0,0,.53,1.92A63,63,0,0,0-.07,3.13,1,1,0,0,0,.29,1.76Z"/><path class="cls-2" d="M20.29-2.24a1,1,0,0,0-1.37-.36A60.77,60.77,0,0,1,10.28.75a1,1,0,0,0,.53,1.92A63,63,0,0,0,19.93-.87,1,1,0,0,0,20.29-2.24Z"/><path class="cls-2" d="M10.29-2.24A1,1,0,0,0,8.92-2.6,60.77,60.77,0,0,1,.28.75,1,1,0,0,0,.81,2.67,63,63,0,0,0,9.93-.87,1,1,0,0,0,10.29-2.24Z"/><path class="cls-2" d="M.29-2.24A1,1,0,0,0-1.08-2.6,60.77,60.77,0,0,1-9.72.75a1,1,0,0,0,.53,1.92A63,63,0,0,0-.07-.87,1,1,0,0,0,.29-2.24Z"/></pattern><pattern id="New_Pattern_Swatch_2-3" data-name="New Pattern Swatch 2" width="10" height="8" patternTransform="translate(-4 1)" patternUnits="userSpaceOnUse" viewBox="0 0 10 8"><rect class="cls-1" width="10" height="8"/><path class="cls-2" d="M20.29,5.76a1,1,0,0,0-1.37-.36,60.77,60.77,0,0,1-8.64,3.35,1,1,0,0,0,.53,1.92,63,63,0,0,0,9.12-3.54A1,1,0,0,0,20.29,5.76Z"/><path class="cls-2" d="M10.29,5.76A1,1,0,0,0,8.92,5.4,60.77,60.77,0,0,1,.28,8.75a1,1,0,0,0,.53,1.92A63,63,0,0,0,9.93,7.13,1,1,0,0,0,10.29,5.76Z"/><path class="cls-2" d="M.29,5.76A1,1,0,0,0-1.08,5.4,60.77,60.77,0,0,1-9.72,8.75a1,1,0,0,0,.53,1.92A63,63,0,0,0-.07,7.13,1,1,0,0,0,.29,5.76Z"/><path class="cls-2" d="M20.29,1.76a1,1,0,0,0-1.37-.36,60.77,60.77,0,0,1-8.64,3.35,1,1,0,0,0,.53,1.92,63,63,0,0,0,9.12-3.54A1,1,0,0,0,20.29,1.76Z"/><path class="cls-2" d="M10.29,1.76A1,1,0,0,0,8.92,1.4,60.77,60.77,0,0,1,.28,4.75,1,1,0,0,0,.81,6.67,63,63,0,0,0,9.93,3.13,1,1,0,0,0,10.29,1.76Z"/><path class="cls-2" d="M.29,1.76A1,1,0,0,0-1.08,1.4,60.77,60.77,0,0,1-9.72,4.75a1,1,0,0,0,.53,1.92A63,63,0,0,0-.07,3.13,1,1,0,0,0,.29,1.76Z"/><path class="cls-2" d="M20.29-2.24a1,1,0,0,0-1.37-.36A60.77,60.77,0,0,1,10.28.75a1,1,0,0,0,.53,1.92A63,63,0,0,0,19.93-.87,1,1,0,0,0,20.29-2.24Z"/><path class="cls-2" d="M10.29-2.24A1,1,0,0,0,8.92-2.6,60.77,60.77,0,0,1,.28.75,1,1,0,0,0,.81,2.67,63,63,0,0,0,9.93-.87,1,1,0,0,0,10.29-2.24Z"/><path class="cls-2" d="M.29-2.24A1,1,0,0,0-1.08-2.6,60.77,60.77,0,0,1-9.72.75a1,1,0,0,0,.53,1.92A63,63,0,0,0-.07-.87,1,1,0,0,0,.29-2.24Z"/></pattern><pattern id="Unnamed_Pattern" data-name="Unnamed Pattern" width="13.29" height="10.01" patternTransform="translate(-1)" patternUnits="userSpaceOnUse" viewBox="0 0 13.29 10.01"><rect class="cls-1" width="13.29" height="10.01"/><path class="cls-3" d="M13.29,6.71a16.44,16.44,0,0,0-3.14.08A15.75,15.75,0,0,0,6.94,7.87,38.07,38.07,0,0,1,0,10c.64-.13,1.36.13,2,0A38.26,38.26,0,0,0,7.56,8.41c.84-.31,1.66-.66,2.49-1A13,13,0,0,1,11.38,7c.67-.19,2.27-.2,0-.26C12,6.73,12.81,6.7,13.29,6.71Z"/><path class="cls-3" d="M13.29,3.37a17.3,17.3,0,0,0-3.14.08A15.19,15.19,0,0,0,6.94,4.54,38.85,38.85,0,0,1,0,6.64c.64-.13,1.36.13,2,0A37,37,0,0,0,7.56,5.07c.84-.3,1.66-.66,2.49-1a13,13,0,0,1,1.33-.45c.67-.19,2.27-.2,0-.25C12,3.39,12.81,3.36,13.29,3.37Z"/><path class="cls-3" d="M13.29,0a16.44,16.44,0,0,0-3.14.09A14.62,14.62,0,0,0,6.94,1.2,38,38,0,0,1,0,3.3c.64-.13,1.36.13,2,0A38.23,38.23,0,0,0,7.56,1.74c.84-.31,1.66-.67,2.49-1A13,13,0,0,1,11.38.29c.67-.19,2.27-.2,0-.25C12,.05,12.81,0,13.29,0Z"/></pattern></defs><g id="Layer_2" data-name="Layer 2"><g id="Logo"><path class="cls-4" d="M181.7,151.79c.05-3,.17-3.67.12-5.55-.1-3.12-.08-4.74-1-5.77-1.25-1.37-2.71-1-3.74-2.38-1.19-1.58-.44-3.64,0-6.45V107.52c-.19-13.21-.81-17.94-2.38-23.09-1.66-5.51-3.4-8.22-5.77-10.19-.75-.63-2.87-2.26-9.51-3.74a62.5,62.5,0,0,0-20.72-1c-9.18,1-12.84,3.36-13.92,4.08A19.08,19.08,0,0,0,120,78,18.8,18.8,0,0,0,116.5,89.3c.46,14.44.27,23.16,0,28.52-.23,4.31-.15,6.8,0,11.78A65.4,65.4,0,0,0,117.63,140a21.18,21.18,0,0,0,1.58,5.44,20.54,20.54,0,0,0,3.85,5.43,18.7,18.7,0,0,0,4.76,3.62,19.93,19.93,0,0,0,7.47,2,79.25,79.25,0,0,0,12.22.45c6.31-.09,9.47-.13,12.23,0,5.85.3,9.64.28,17.21.23,1.27,0,3.85-.05,4.75-1.58C182.19,154.81,181.67,154.15,181.7,151.79Zm-22.13-22a11.06,11.06,0,0,1-.68,3.56,8.45,8.45,0,0,1-5.09,4.93c-.9.32-1.63.41-5.44.34-4.66-.09-3.87-.24-5.43-.17-2.29.1-3.17.39-4.58-.17a8.14,8.14,0,0,1-2.38-1.53,9.46,9.46,0,0,1-1.87-2.21,9.7,9.7,0,0,1-1.19-3.22,17.88,17.88,0,0,1,0-5.61c0-.12.05-2.25.11-6.51.09-5.58-.08-5.59,0-11.32.08-5.4.21-4,.23-7.64,0-1.81.26-3.62.34-5.43a6.82,6.82,0,0,1,.68-3.23,5.81,5.81,0,0,1,1.87-2c1.15-.77,2.26-.89,4.58-1s4-.13,5.78-.17c3.87-.07,4.71-.19,6.45.17a8.51,8.51,0,0,1,3.4,1.36,7.86,7.86,0,0,1,2,2.21,9.6,9.6,0,0,1,1.19,5.26c0,3,.22,6,.17,9-.05,3.36-.1,6.21,0,9.85.07,2.46.18,4.46.17,8C159.91,124.16,159.91,125.88,159.57,129.77Z" transform="translate(-4.21)"/><path class="cls-5" d="M100.87,139.67,81.17,70H61.48l-19.7,67.69-5,4.7V158H64.19L64,141.47,61,139.65l1.14-9.05,17,.45,2.26,9.51-2.94,1.36L78.91,158h26.27v-16.3Zm-35.41-28,4.3-19.47,4.75,19.47Z" transform="translate(-4.21)"/><path class="cls-2" d="M109.75,133.72,90.05,64H70.36l-19.7,67.69-5,4.7V152H73.07l-.22-16.52L69.9,133.7l1.14-9,17,.45,2.26,9.51L87.34,136,87.79,152h26.27v-16.3Zm-35.41-28,4.3-19.47,4.75,19.47Z" transform="translate(-4.21)"/><path class="cls-2" d="M188.58,146.84c0-3.05.17-3.67.12-5.55-.1-3.12-.08-4.74-1-5.77-1.25-1.37-2.71-1-3.74-2.38-1.19-1.58-.44-3.64,0-6.45V102.57c-.19-13.21-.81-17.94-2.38-23.09-1.66-5.51-3.4-8.22-5.77-10.19-.75-.63-2.87-2.26-9.51-3.74a62.5,62.5,0,0,0-20.72-1c-9.18,1-12.84,3.36-13.92,4.08A19.08,19.08,0,0,0,126.89,73a18.8,18.8,0,0,0-3.51,11.32c.46,14.44.27,23.16,0,28.52-.23,4.31-.15,6.8,0,11.78a65.4,65.4,0,0,0,1.13,10.41,21.18,21.18,0,0,0,1.58,5.44,20.54,20.54,0,0,0,3.85,5.43,18.7,18.7,0,0,0,4.76,3.62,19.93,19.93,0,0,0,7.47,2,79.25,79.25,0,0,0,12.22.45c6.31-.09,9.47-.13,12.23,0,5.85.3,9.64.28,17.21.23,1.27,0,3.85-.05,4.75-1.58C189.07,149.86,188.55,149.2,188.58,146.84Zm-22.13-22a11.06,11.06,0,0,1-.68,3.56,8.45,8.45,0,0,1-5.09,4.93c-.9.32-1.63.41-5.44.34-4.66-.09-3.87-.24-5.43-.17-2.29.1-3.17.39-4.58-.17a8.14,8.14,0,0,1-2.38-1.53,9.46,9.46,0,0,1-1.87-2.21,9.7,9.7,0,0,1-1.19-3.22,17.88,17.88,0,0,1,0-5.61c0-.12.05-2.25.11-6.51.09-5.58-.08-5.59,0-11.32.08-5.4.21-4,.23-7.64,0-1.81.26-3.62.34-5.43a6.82,6.82,0,0,1,.68-3.23,5.81,5.81,0,0,1,1.87-2c1.15-.77,2.26-.89,4.58-1s4-.13,5.78-.17c3.87-.07,4.71-.19,6.45.17a8.51,8.51,0,0,1,3.4,1.36,7.86,7.86,0,0,1,2,2.21,9.6,9.6,0,0,1,1.19,5.26c0,3,.22,6,.17,9-.05,3.36-.1,6.21,0,9.85.07,2.46.18,4.46.17,8C166.79,119.21,166.79,120.93,166.45,124.82Z" transform="translate(-4.21)"/><path class="cls-6" d="M34.11,190.74c.65.7,2.76,3.17,6.55,6.77a94,94,0,0,0,17,12.77,86.28,86.28,0,0,0,13.09,6.25q3.68,1.38,7.73,2.53a82.55,82.55,0,0,0,8.46,1.81,90.41,90.41,0,0,0,19,.95c3.39-.14,6.88-.44,10.5-.81s7.41-.78,11.12-1.24A127.44,127.44,0,0,0,150,215.12a100.36,100.36,0,0,0,22-10,92.48,92.48,0,0,0,20-15.51,81.16,81.16,0,0,0,14.84-21.39,91.89,91.89,0,0,0,7.64-26c.36-2.31.65-4.66.95-7.07s.52-4.67.69-7a123.44,123.44,0,0,0,.17-14.14,108.84,108.84,0,0,0-1.54-14.08,113.43,113.43,0,0,0-3.37-13.87,110.15,110.15,0,0,0-11.79-26,113.92,113.92,0,0,0-18-22.11,105.58,105.58,0,0,0-22.8-16.46A93.41,93.41,0,0,0,146,15.91a66.73,66.73,0,0,0-6.57-2.08c-1.11-.3-2.19-.69-3.31-.92l-3.34-.75A95.39,95.39,0,0,0,106,10.55c-17.67,1.4-34.25,7.61-48.27,16a116,116,0,0,0-10,6.72c-3.17,2.39-6.21,4.89-9,7.47a99.35,99.35,0,0,0-7.87,8.06,105.16,105.16,0,0,0-6.74,8.48,103,103,0,0,0-10,17.6c-.61,1.49-1.28,2.93-1.82,4.4s-1.07,2.93-1.58,4.36c-.89,2.92-1.8,5.74-2.41,8.54a96.3,96.3,0,0,0-2.47,15.85A104.6,104.6,0,0,0,6.9,132.63c.49,3.16,1.1,5.82,1.6,8s1,3.77,1.3,4.86l.51,1.65a104.54,104.54,0,0,1-5.58-25,106.53,106.53,0,0,1-.51-12.89c.12-2.15.12-4.32.37-6.46l.3-3.23.47-3.21A102.3,102.3,0,0,1,18.19,62.93,107,107,0,0,1,41.64,35.84,122,122,0,0,1,72.45,17.26a116.16,116.16,0,0,1,17.08-5.64,105,105,0,0,1,17.7-2.7,95.12,95.12,0,0,1,35.27,4.32A99.89,99.89,0,0,1,174,29.77a114.62,114.62,0,0,1,24.29,26.16,112.11,112.11,0,0,1,14.86,32.43,111.17,111.17,0,0,1,3.47,17.53,120,120,0,0,1,.65,17.89q-.16,4.48-.67,8.94c-.16,1.46-.35,3-.55,4.53s-.4,3-.63,4.5a102,102,0,0,1-4.06,17.32,82.5,82.5,0,0,1-7.3,16,83.65,83.65,0,0,1-10.55,14,87.15,87.15,0,0,1-13.29,11.54c-2.4,1.7-4.9,3.3-7.48,4.83l-2,1.16-1.94,1.07c-1.28.74-2.6,1.4-3.92,2.06a107.49,107.49,0,0,1-34,10.05c-3,.42-6,.76-9.07,1.08s-6.13.64-9.15.9a116.73,116.73,0,0,1-17.8.33,76.15,76.15,0,0,1-8.68-1,77.63,77.63,0,0,1-8.51-1.95,88.66,88.66,0,0,1-16.24-6.5A94.9,94.9,0,0,1,34.11,190.74Z" transform="translate(-4.21)"/><path class="cls-6" d="M94,224.27c.78,0,3.41.26,7.71.22a172.78,172.78,0,0,0,17.71-1.24c7.49-.82,16.3-1.69,25.9-4.16a103.79,103.79,0,0,0,14.84-5c2.53-1.06,5.06-2.29,7.61-3.61,1.27-.67,2.52-1.4,3.81-2.11s2.58-1.52,3.85-2.31a95.85,95.85,0,0,0,14.83-11.17A83.17,83.17,0,0,0,203,180c1-1.38,1.82-2.86,2.73-4.3s1.7-3,2.45-4.54a79.3,79.3,0,0,0,4.12-9.62,103.72,103.72,0,0,0,5-21.13c.26-1.84.49-3.71.72-5.6s.41-3.71.55-5.59c.29-3.74.41-7.52.36-11.31a112.54,112.54,0,0,0-2.56-22.77,114.48,114.48,0,0,0-18.71-42.44,112.33,112.33,0,0,0-33.95-31.31A101,101,0,0,0,143,12.21,94.18,94.18,0,0,0,121.31,8,98.83,98.83,0,0,0,100,8.66Q94.8,9.4,89.8,10.59c-3.31.83-6.57,1.74-9.72,2.83A124,124,0,0,0,46.87,30.77,111.8,111.8,0,0,0,24.28,52.83a106.13,106.13,0,0,0-7.34,10.93,110.57,110.57,0,0,0-5.06,10A107.85,107.85,0,0,0,6.62,88.45l-1.3,5.37A104.32,104.32,0,0,1,20.71,54.94C32.12,39,47.93,26.33,65.59,17.85S103,5,122.49,6.87A101.36,101.36,0,0,1,176,28.47a115.07,115.07,0,0,1,34.85,46.2,119.09,119.09,0,0,1,7.66,28.12,122.52,122.52,0,0,1,.46,29.15c-.26,2.4-.57,4.88-.9,7.31s-.71,4.84-1.15,7.23a100.29,100.29,0,0,1-3.65,14.05,84.22,84.22,0,0,1-13.89,25.19,89.42,89.42,0,0,1-21.5,19.17c-2,1.32-4.12,2.57-6.25,3.79l-3.17,1.76-3.24,1.64a101.26,101.26,0,0,1-13.44,5.38c-9.21,3-18.82,4.49-28.62,5.51S103.56,225,94,224.27Z" transform="translate(-4.21)"/><path class="cls-6" d="M153.74,219.1c.61-.2,2.67-.89,5.92-2.21a100.51,100.51,0,0,0,12.88-6.34,107.81,107.81,0,0,0,17.37-12.15,86.51,86.51,0,0,0,24-34.15,97.68,97.68,0,0,0,4.44-15.59c2-10.93,3.46-22.66,2.87-34.71a116.87,116.87,0,0,0-39.76-82.73,115.75,115.75,0,0,0-15.23-11.17A104.62,104.62,0,0,0,132.08,7,100.62,100.62,0,0,0,98,6.55,114.44,114.44,0,0,0,68.7,15.32a127.26,127.26,0,0,0-22.4,12.9,121.54,121.54,0,0,0-15.11,13,113.3,113.3,0,0,0-8.42,9.65l-2,2.7c-.46.61-.68.94-.68.94A112.14,112.14,0,0,1,30.54,40.93,120.55,120.55,0,0,1,43,29.07,125.82,125.82,0,0,1,85.71,8a101.65,101.65,0,0,1,70.09,5.58,102.26,102.26,0,0,1,20.41,12.3A116,116,0,0,1,193.47,42.3c2.58,3,5,6.17,7.31,9.42a116.49,116.49,0,0,1,15.61,32A117.11,117.11,0,0,1,221.18,107a126.58,126.58,0,0,1,.06,23.76,157,157,0,0,1-3.83,23.45A86.49,86.49,0,0,1,201.92,186a89.41,89.41,0,0,1-7.89,8.84,98.26,98.26,0,0,1-18.85,14.28A105.55,105.55,0,0,1,153.74,219.1Z" transform="translate(-4.21)"/><path class="cls-6" d="M188.56,202.25c.41-.33,1.79-1.44,3.92-3.37a85,85,0,0,0,8.19-8.41,87.09,87.09,0,0,0,9.88-14.26,89.4,89.4,0,0,0,8.22-20.39,155.5,155.5,0,0,0,4.13-25.22,125.8,125.8,0,0,0-.73-28.31,122.65,122.65,0,0,0-8-29,117,117,0,0,0-15.57-26.77,113.9,113.9,0,0,0-10.28-11.64c-1.78-1.87-3.75-3.54-5.64-5.29-1-.85-2-1.64-3-2.46s-2-1.66-3-2.38a106.54,106.54,0,0,0-26.07-14.55,69.42,69.42,0,0,0-6.81-2.35l-3.42-1-1.69-.49c-.57-.15-1.15-.26-1.71-.4a98.67,98.67,0,0,0-13.49-2.21,102.54,102.54,0,0,0-25,.64,114,114,0,0,0-20.45,5,130.7,130.7,0,0,0-15,6.27c-4,2-7.08,3.76-9.13,5s-3.14,1.94-3.14,1.94A129.23,129.23,0,0,1,75.39,9.25c3-1.14,6.15-2.07,9.27-3S91,4.67,94.16,4.12a104.2,104.2,0,0,1,38.78.08,87.53,87.53,0,0,1,9.45,2.35c1.55.47,3.13.88,4.66,1.42l4.56,1.72,2.27.88,2.21,1,4.41,2.06L164.76,16l2.13,1.18,2.05,1.32a108.16,108.16,0,0,1,15.45,11.73,118.92,118.92,0,0,1,24.1,30.17,121.9,121.9,0,0,1,13.15,36.27,117.26,117.26,0,0,1,2,19.23,130.74,130.74,0,0,1-.95,19.28,146.2,146.2,0,0,1-3.29,19,90.81,90.81,0,0,1-2.85,9.26,85.44,85.44,0,0,1-3.82,8.92A88.84,88.84,0,0,1,188.56,202.25Z" transform="translate(-4.21)"/><path class="cls-6" d="M210.88,179.38A86.7,86.7,0,0,0,217,167a97.86,97.86,0,0,0,4.27-13.48A151.31,151.31,0,0,0,224.19,136a123.13,123.13,0,0,0-9.75-66.79,118.25,118.25,0,0,0-5.79-11.17,114.49,114.49,0,0,0-7-10.56A122.81,122.81,0,0,0,184.78,29,111.74,111.74,0,0,0,165,14.87l-2.59-1.42-1.29-.71-1.32-.61-5.23-2.42c-1.75-.72-3.53-1.35-5.26-2-.87-.32-1.73-.66-2.6-1L144.09,6,139,4.48c-1.71-.38-3.39-.78-5.06-1.12s-3.31-.62-4.94-.85-3.22-.47-4.79-.59A105.14,105.14,0,0,0,93.87,3.28c-3.6.66-6.38,1.39-8.28,1.89-.94.24-1.67.44-2.15.59L82.71,6A109.47,109.47,0,0,1,93.62,2.91c1.84-.45,3.71-.77,5.57-1.14S103,1.14,104.84,1a103.17,103.17,0,0,1,31.54,2.21c2.59.52,5.11,1.32,7.65,2.06,1.26.4,2.55.69,3.78,1.18l3.7,1.4c1.23.5,2.5.89,3.69,1.46l3.59,1.68c2.42,1,4.7,2.38,7,3.65l1.73,1c.57.34,1.12.71,1.67,1.06l3.33,2.14c1.13.68,2.16,1.5,3.23,2.27L179,23.35a125.82,125.82,0,0,1,11.73,10.51A119,119,0,0,1,201,45.76c1.58,2.09,3.09,4.23,4.55,6.42.71,1.1,1.42,2.21,2.1,3.31l2,3.39a121.72,121.72,0,0,1,11.8,29.06,119.76,119.76,0,0,1,3,15.42,126.22,126.22,0,0,1,1,15.65,131.77,131.77,0,0,1-.92,15.63c-.6,5.07-1.3,10.23-2.36,15.36A93.13,93.13,0,0,1,210.88,179.38Z" transform="translate(-4.21)"/><path class="cls-6" d="M220.56,161.37a105.84,105.84,0,0,0,2.84-10.8c.64-3.14,1.28-6.92,1.82-11.14s1.13-9,1.32-14.21a130,130,0,0,0-.36-16.81A117.06,117.06,0,0,0,223.1,90a121.54,121.54,0,0,0-42.51-66.42,109.66,109.66,0,0,0-30.32-17c-1.21-.43-2.36-.93-3.53-1.28l-3.44-1-3.26-1c-1.06-.32-2.12-.5-3.12-.75A101.62,101.62,0,0,0,126.34.71c-1.47-.22-2.8-.28-4-.4s-2.13-.18-2.93-.2L117,0a106.24,106.24,0,0,1,18.39,1.53c4.2.85,8.28,2.17,12.38,3.39l6,2.28a28.49,28.49,0,0,1,3,1.27l2.91,1.35a111.69,111.69,0,0,1,21.6,13.65,122.37,122.37,0,0,1,32,39.2,126.32,126.32,0,0,1,11.94,36.07,117.74,117.74,0,0,1,1.41,12.64,133.69,133.69,0,0,1-.91,25.24A127.71,127.71,0,0,1,220.56,161.37Z" transform="translate(-4.21)"/><path class="cls-7" d="M67.33,76.3a16.49,16.49,0,0,0-3.14.09A15.08,15.08,0,0,0,61,77.47a38.53,38.53,0,0,1-6.94,2.1c.63-.13,1.35.13,2,0A38.1,38.1,0,0,0,61.6,78c.85-.31,1.67-.67,2.5-1a12.06,12.06,0,0,1,1.32-.45c.68-.19,2.27-.2,0-.25C66,76.32,66.86,76.29,67.33,76.3Z" transform="translate(-4.21)"/><line class="cls-8" x1="64.42" y1="69.98" x2="46.45" y2="131.72"/><polyline class="cls-8" points="41.47 136.42 41.47 152.04 59.9 152.04"/><line class="cls-8" x1="74.65" y1="87.21" x2="79.18" y2="105.76"/><polyline class="cls-8" points="66.83 124.65 83.81 125.1 86.07 134.61"/><polyline class="cls-8" points="83.13 135.97 83.58 152.04 100.97 152.04"/><path class="cls-8" d="M127.46,71.74c-5.69,7.38-4,17-3.89,25.73.07,6.78-.33,13.54-.32,20.31,0,7.54-.35,16.65,3.32,23.55,5.1,9.62,15.27,10.78,25.08,10.77,10.08,0,20.19.39,30.26.14" transform="translate(-4.21)"/><path class="cls-8" d="M143.79,84.45a8.5,8.5,0,0,1,1.27-.42,8.12,8.12,0,0,1,2.38-.21c1.28,0,2.55-.09,3.82-.13,1.57,0,2.51-.09,4.42-.13a24.64,24.64,0,0,1,2.67.09c.56,0,1,.1,1.36.17a11.34,11.34,0,0,1,1.53.34,4.91,4.91,0,0,1,1,.38A6.39,6.39,0,0,1,163,85a8.29,8.29,0,0,1,.78.63,6.58,6.58,0,0,1,1.09,1.15,5.27,5.27,0,0,1,.65,1.27,8.46,8.46,0,0,1,.39,1.36,17.09,17.09,0,0,1,.29,2.62c.05.9.05,1.55.06,2.09,0,1.27.05,2.53.06,3.8.05,7.25.1,8.45.1,10.42,0,1.19,0,2.15,0,2.74l0,1.52c0,.59.07,1.2.08,1.84s0,1.42,0,2.07c.06.47.11,1,.14,1.53a19.52,19.52,0,0,1,0,2.32c-.12.9-.19,1.63-.23,2.12-.05.65,0,.83-.11,1.78s-.11,1.51-.17,1.9a8.57,8.57,0,0,1-.57,2.12,9.71,9.71,0,0,1-.85,1.56,6.14,6.14,0,0,1-.76,1.08,6.7,6.7,0,0,1-1.16,1,12.43,12.43,0,0,1-1.41.87,4.73,4.73,0,0,1-1.28.51,3.17,3.17,0,0,1-.82.06" transform="translate(-4.21)"/></g></g></svg>