<svg id="svg" xmlns="http://www.w3.org/2000/svg" xmlns:xlink="http://www.w3.org/1999/xlink" width="400" height="190.188679245283" viewBox="0, 0, 400,190.188679245283"><g id="svgg"><path id="path0" d="M0.000 28.518 C 0.000 47.801,-2.473 45.507,21.132 48.120 C 60.250 52.451,110.658 58.060,126.792 59.877 C 131.358 60.392,136.453 60.935,138.113 61.085 C 139.774 61.235,147.245 62.168,154.717 63.158 C 178.917 66.366,248.617 73.884,254.717 73.944 C 255.755 73.954,256.604 73.391,256.604 72.692 C 256.604 71.005,249.969 69.124,221.132 62.638 C 207.849 59.650,188.491 55.211,178.113 52.773 C 167.736 50.335,156.189 47.664,152.453 46.838 C 148.717 46.011,137.170 43.355,126.792 40.936 C 65.283 26.596,51.625 23.378,33.208 18.886 C 22.000 16.152,9.943 13.442,6.415 12.863 L 0.000 11.810 0.000 28.518 M269.442 76.968 C 267.307 80.423,273.719 82.383,321.771 92.964 C 331.174 95.035,344.981 98.138,352.453 99.861 C 359.925 101.583,367.906 103.330,370.189 103.743 C 376.209 104.832,375.737 105.614,360.455 119.874 L 346.571 132.830 296.682 132.890 C 269.243 132.923,240.679 133.289,233.208 133.704 C 213.064 134.822,213.274 134.942,212.570 121.900 C 211.638 104.625,198.654 81.509,189.882 81.509 C 185.810 81.509,186.582 84.115,192.482 90.289 C 201.902 100.148,206.020 110.607,206.161 125.037 C 206.326 141.939,199.948 140.688,280.000 139.521 L 349.434 138.508 366.415 122.685 C 387.184 103.332,387.838 101.009,373.324 98.157 C 369.317 97.370,346.340 92.200,322.264 86.668 C 269.127 74.459,270.803 74.767,269.442 76.968 M28.302 135.470 C 4.540 135.844,0.000 136.274,0.000 138.147 C 0.000 140.061,5.894 140.377,41.509 140.377 C 75.983 140.377,83.019 140.021,83.019 138.275 C 83.019 135.135,79.406 134.303,67.424 134.682 C 61.473 134.870,43.868 135.224,28.302 135.470 M91.266 144.994 C 88.371 149.679,105.977 167.073,120.755 174.128 C 135.891 181.355,173.585 180.852,173.585 173.423 C 173.585 172.380,170.689 172.272,164.906 173.099 C 136.714 177.129,113.809 169.327,100.159 151.044 C 94.269 143.154,92.956 142.261,91.266 144.994 " stroke="none" fill="#e72a45" fill-rule="evenodd"></path></g></svg>